<svg width="866" height="300" viewBox="0 0 866 300" fill="none" xmlns="http://www.w3.org/2000/svg">
<path d="M145.563 290.224C220.483 290.224 281.218 229.964 281.218 155.629C281.218 81.2943 220.483 21.0341 145.563 21.0341C70.6424 21.0341 9.90753 81.2943 9.90753 155.629C9.90753 229.964 70.6424 290.224 145.563 290.224Z" fill="#EA1F59"/>
<path fill-rule="evenodd" clip-rule="evenodd" d="M145.563 30.5131C75.8073 30.5131 19.3866 86.5995 19.3866 155.629C19.3866 224.659 75.8073 280.746 145.563 280.746C215.318 280.746 271.739 224.659 271.739 155.629C271.739 86.5995 215.318 30.5131 145.563 30.5131ZM0.428589 155.629C0.428589 75.9893 65.4775 11.5551 145.563 11.5551C225.648 11.5551 290.697 75.9893 290.697 155.629C290.697 235.269 225.648 299.704 145.563 299.704C65.4775 299.704 0.428589 235.269 0.428589 155.629Z" fill="#211663"/>
<path d="M126.336 258.402C126.336 275.586 140.449 289.517 157.847 289.517C217.982 289.517 281.238 229.372 281.217 155.213C281.175 80.887 221.644 21.0341 146.405 21.0341C134.336 21.0341 124.588 30.6898 124.588 42.5978C124.588 54.5058 134.361 64.1615 146.431 64.1615H158.227C165.03 64.1615 170.549 69.6046 170.549 76.3407V81.4292C170.549 88.1444 165.03 93.6083 158.227 93.6083H127.2C116.605 93.6083 108.011 102.096 108.011 112.565C108.011 123.034 116.605 131.522 127.2 131.522H147.316C154.119 131.522 159.638 136.965 159.638 143.701V153.044C159.638 159.759 154.119 165.223 147.316 165.223H102.492C91.9392 165.223 83.3874 173.669 83.3874 184.097C83.3874 194.524 91.9392 202.97 102.492 202.97H164.44C171.244 202.97 176.763 208.413 176.763 215.149C176.763 221.865 171.244 227.329 164.44 227.329H157.847C157.847 227.329 126.336 224.43 126.336 258.444V258.402Z" fill="url(#paint0_radial_545_830)"/>
<path fill-rule="evenodd" clip-rule="evenodd" d="M155.708 12.187C138.502 12.187 124.412 25.9886 124.412 43.2299C124.412 60.4856 138.543 74.2727 155.734 74.2727H167.53C169.209 74.2727 170.373 75.5817 170.373 76.9729V82.0614C170.373 83.4422 169.198 84.7616 167.53 84.7616H136.503C120.783 84.7616 107.835 97.3843 107.835 113.198C107.835 129.011 120.783 141.634 136.503 141.634H156.619C158.298 141.634 159.462 142.943 159.462 144.334V153.677C159.462 155.057 158.287 156.377 156.619 156.377H111.795C96.1173 156.377 83.2117 168.958 83.2117 184.729C83.2117 200.501 96.1173 213.082 111.795 213.082H173.744C175.423 213.082 176.587 214.391 176.587 215.782C176.587 217.163 175.412 218.482 173.744 218.482L165.938 218.425C164.803 218.408 163.244 218.435 161.397 218.597C157.757 218.917 152.71 219.79 147.522 222.112C142.263 224.467 136.765 228.363 132.633 234.672C128.505 240.977 126.171 249.035 126.161 259.008L126.161 259.116C126.205 281.611 144.658 299.629 167.151 299.629C200.304 299.629 233.499 283.142 258.233 257.371C283.047 231.517 300.011 195.657 300 155.843V155.84C299.955 76.2716 236.172 12.187 155.708 12.187ZM145.119 259.052C145.128 270.88 154.879 280.671 167.151 280.671C194.133 280.671 222.633 267.086 244.556 244.244C266.398 221.486 281.051 190.196 281.042 155.851C281.001 86.7681 225.723 31.145 155.708 31.145C148.775 31.145 143.37 36.6549 143.37 43.2299C143.37 49.7902 148.787 55.3147 155.734 55.3147H167.53C179.458 55.3147 189.331 64.8918 189.331 76.9729V82.0614C189.331 94.1111 179.469 103.72 167.53 103.72H136.503C131.033 103.72 126.793 108.073 126.793 113.198C126.793 118.322 131.033 122.676 136.503 122.676H156.619C168.547 122.676 178.42 132.253 178.42 144.334V153.677C178.42 165.726 168.558 175.335 156.619 175.335H111.795C106.368 175.335 102.17 179.646 102.17 184.729C102.17 189.812 106.368 194.124 111.795 194.124H173.744C185.672 194.124 195.545 203.701 195.545 215.782C195.545 227.832 185.683 237.44 173.744 237.44L165.656 237.381C165.068 237.372 164.165 237.385 163.057 237.482C160.789 237.682 157.959 238.211 155.269 239.415C152.65 240.588 150.27 242.344 148.493 245.058C146.725 247.759 145.122 252.065 145.119 259.052Z" fill="#211663"/>
<path d="M109.713 170.049C87.1706 170.049 68.8237 152.25 68.8237 130.359C68.8237 108.468 87.1609 90.6682 109.713 90.6682H181.814C204.356 90.6682 222.703 108.468 222.703 130.359C222.703 152.25 204.366 170.049 181.814 170.049H109.713Z" fill="white"/>
<path d="M216.842 130.359C216.842 111.475 201.094 96.294 181.824 96.294H109.722C90.452 96.294 74.7044 111.475 74.7044 130.359C74.7044 149.243 90.452 164.424 109.722 164.424H181.824C201.094 164.424 216.842 149.243 216.842 130.359ZM109.722 85.0425H181.824C207.677 85.0425 228.584 105.443 228.584 130.359C228.584 155.275 207.677 175.675 181.824 175.675H109.722C83.8697 175.675 62.9622 155.275 62.9622 130.359C62.9622 105.443 83.8697 85.0425 109.722 85.0425Z" fill="#211663" stroke="#211663" stroke-width="5"/>
<path d="M145.767 159.071C162.103 159.071 175.346 146.216 175.346 130.359C175.346 114.501 162.103 101.646 145.767 101.646C129.431 101.646 116.188 114.501 116.188 130.359C116.188 146.216 129.431 159.071 145.767 159.071Z" fill="#211663"/>
<path d="M154.796 124.569C158.954 124.569 162.326 121.297 162.326 117.26C162.326 113.223 158.954 109.95 154.796 109.95C150.637 109.95 147.266 113.223 147.266 117.26C147.266 121.297 150.637 124.569 154.796 124.569Z" fill="white"/>
<g clip-path="url(#clip0_545_830)">
<path d="M434.81 90.4901H416.21C409.69 90.4901 404.41 95.7801 404.41 102.29V184.2C404.41 190.72 399.12 196 392.61 196H374.01C367.49 196 362.21 190.71 362.21 184.2V102.3C362.21 95.7801 356.92 90.5001 350.41 90.5001H331.8C325.28 90.5001 320 85.2101 320 78.7001V65.7401C320 59.2101 325.29 53.9301 331.8 53.9301H434.81C441.33 53.9301 446.61 59.2201 446.61 65.7301V78.6901C446.61 85.2101 441.32 90.4901 434.81 90.4901Z" fill="#211663"/>
<path d="M592.25 124.97C592.25 166.97 560.49 198.94 515.57 198.94C470.65 198.94 438.89 166.97 438.89 124.97C438.89 82.97 470.65 51 515.57 51C560.49 51 592.25 82.97 592.25 124.97ZM549.42 124.97C549.42 106.37 535.42 90.29 515.57 90.29C495.72 90.29 481.72 106.38 481.72 124.97C481.72 143.56 495.72 159.65 515.57 159.65C535.42 159.65 549.42 143.56 549.42 124.97Z" fill="#211663"/>
<path d="M749.38 124.97C749.38 166.97 717.62 198.94 672.7 198.94C627.78 198.94 596.02 166.97 596.02 124.97C596.02 82.97 627.78 51 672.7 51C717.62 51 749.38 82.97 749.38 124.97ZM706.55 124.97C706.55 106.37 692.55 90.29 672.7 90.29C652.85 90.29 638.85 106.38 638.85 124.97C638.85 143.56 652.85 159.65 672.7 159.65C692.55 159.65 706.55 143.56 706.55 124.97Z" fill="#211663"/>
<path d="M798.48 101.67C798.48 108.19 803.77 113.47 810.28 113.47H843.71C850.23 113.47 855.51 118.76 855.51 125.27V136.97C855.51 143.49 850.22 148.77 843.71 148.77H810.28C803.76 148.77 798.48 154.06 798.48 160.57V184.18C798.48 190.7 793.19 195.98 786.68 195.98H768.29C761.77 195.98 756.49 190.69 756.49 184.18V65.7301C756.49 59.2101 761.78 53.9301 768.29 53.9301H853.75C860.27 53.9301 865.55 59.2201 865.55 65.7301V78.0601C865.55 84.5801 860.26 89.8601 853.75 89.8601H810.29C803.77 89.8601 798.49 95.1501 798.49 101.66L798.48 101.67Z" fill="#211663"/>
</g>
<path d="M386.113 222.622V227.965H378.859V250H372.19V227.965H364.936V222.622H386.113ZM390.981 222.622H397.806L393.438 233.074H388.953L390.981 222.622ZM422.238 238.768C422.238 239.392 422.199 240.042 422.121 240.718H407.028C407.132 242.07 407.561 243.11 408.315 243.838C409.095 244.54 410.044 244.891 411.162 244.891C412.826 244.891 413.983 244.189 414.633 242.785H421.731C421.367 244.215 420.704 245.502 419.742 246.646C418.806 247.79 417.623 248.687 416.193 249.337C414.763 249.987 413.164 250.312 411.396 250.312C409.264 250.312 407.366 249.857 405.702 248.947C404.038 248.037 402.738 246.737 401.802 245.047C400.866 243.357 400.398 241.381 400.398 239.119C400.398 236.857 400.853 234.881 401.763 233.191C402.699 231.501 403.999 230.201 405.663 229.291C407.327 228.381 409.238 227.926 411.396 227.926C413.502 227.926 415.374 228.368 417.012 229.252C418.65 230.136 419.924 231.397 420.834 233.035C421.77 234.673 422.238 236.584 422.238 238.768ZM415.413 237.013C415.413 235.869 415.023 234.959 414.243 234.283C413.463 233.607 412.488 233.269 411.318 233.269C410.2 233.269 409.251 233.594 408.471 234.244C407.717 234.894 407.249 235.817 407.067 237.013H415.413ZM434.609 250.312C432.711 250.312 431.021 249.987 429.539 249.337C428.057 248.687 426.887 247.803 426.029 246.685C425.171 245.541 424.69 244.267 424.586 242.863H431.177C431.255 243.617 431.606 244.228 432.23 244.696C432.854 245.164 433.621 245.398 434.531 245.398C435.363 245.398 436 245.242 436.442 244.93C436.91 244.592 437.144 244.163 437.144 243.643C437.144 243.019 436.819 242.564 436.169 242.278C435.519 241.966 434.466 241.628 433.01 241.264C431.45 240.9 430.15 240.523 429.11 240.133C428.07 239.717 427.173 239.08 426.419 238.222C425.665 237.338 425.288 236.155 425.288 234.673C425.288 233.425 425.626 232.294 426.302 231.28C427.004 230.24 428.018 229.421 429.344 228.823C430.696 228.225 432.295 227.926 434.141 227.926C436.871 227.926 439.016 228.602 440.576 229.954C442.162 231.306 443.072 233.1 443.306 235.336H437.144C437.04 234.582 436.702 233.984 436.13 233.542C435.584 233.1 434.856 232.879 433.946 232.879C433.166 232.879 432.568 233.035 432.152 233.347C431.736 233.633 431.528 234.036 431.528 234.556C431.528 235.18 431.853 235.648 432.503 235.96C433.179 236.272 434.219 236.584 435.623 236.896C437.235 237.312 438.548 237.728 439.562 238.144C440.576 238.534 441.46 239.184 442.214 240.094C442.994 240.978 443.397 242.174 443.423 243.682C443.423 244.956 443.059 246.1 442.331 247.114C441.629 248.102 440.602 248.882 439.25 249.454C437.924 250.026 436.377 250.312 434.609 250.312ZM606.02 250.312C603.888 250.312 601.964 249.857 600.248 248.947C598.558 248.037 597.219 246.737 596.231 245.047C595.269 243.357 594.788 241.381 594.788 239.119C594.788 236.883 595.282 234.92 596.27 233.23C597.258 231.514 598.61 230.201 600.326 229.291C602.042 228.381 603.966 227.926 606.098 227.926C608.23 227.926 610.154 228.381 611.87 229.291C613.586 230.201 614.938 231.514 615.926 233.23C616.914 234.92 617.408 236.883 617.408 239.119C617.408 241.355 616.901 243.331 615.887 245.047C614.899 246.737 613.534 248.037 611.792 248.947C610.076 249.857 608.152 250.312 606.02 250.312ZM606.02 244.54C607.294 244.54 608.373 244.072 609.257 243.136C610.167 242.2 610.622 240.861 610.622 239.119C610.622 237.377 610.18 236.038 609.296 235.102C608.438 234.166 607.372 233.698 606.098 233.698C604.798 233.698 603.719 234.166 602.861 235.102C602.003 236.012 601.574 237.351 601.574 239.119C601.574 240.861 601.99 242.2 602.822 243.136C603.68 244.072 604.746 244.54 606.02 244.54ZM642.435 228.238V250H635.766V247.036C635.09 247.998 634.167 248.778 632.997 249.376C631.853 249.948 630.579 250.234 629.175 250.234C627.511 250.234 626.042 249.87 624.768 249.142C623.494 248.388 622.506 247.309 621.804 245.905C621.102 244.501 620.751 242.85 620.751 240.952V228.238H627.381V240.055C627.381 241.511 627.758 242.642 628.512 243.448C629.266 244.254 630.28 244.657 631.554 244.657C632.854 244.657 633.881 244.254 634.635 243.448C635.389 242.642 635.766 241.511 635.766 240.055V228.238H642.435ZM791.835 221.101C794.617 221.101 796.84 221.829 798.504 223.285C800.194 224.741 801.039 226.795 801.039 229.447C801.039 231.891 800.233 233.802 798.621 235.18C797.035 236.532 794.929 237.221 792.303 237.247L792.108 240.172H786.258L786.063 232.918H788.403C790.405 232.918 791.926 232.671 792.966 232.177C794.032 231.683 794.565 230.786 794.565 229.486C794.565 228.576 794.318 227.861 793.824 227.341C793.33 226.821 792.641 226.561 791.757 226.561C790.821 226.561 790.093 226.834 789.573 227.38C789.053 227.9 788.793 228.615 788.793 229.525H782.514C782.462 227.939 782.787 226.509 783.489 225.235C784.217 223.961 785.283 222.96 786.687 222.232C788.117 221.478 789.833 221.101 791.835 221.101ZM789.261 250.312C788.091 250.312 787.129 249.974 786.375 249.298C785.647 248.596 785.283 247.738 785.283 246.724C785.283 245.684 785.647 244.813 786.375 244.111C787.129 243.409 788.091 243.058 789.261 243.058C790.405 243.058 791.341 243.409 792.069 244.111C792.823 244.813 793.2 245.684 793.2 246.724C793.2 247.738 792.823 248.596 792.069 249.298C791.341 249.974 790.405 250.312 789.261 250.312Z" fill="#211663"/>
<path d="M465.674 250.312C463.542 250.312 461.618 249.857 459.902 248.947C458.212 248.037 456.873 246.737 455.885 245.047C454.923 243.357 454.442 241.381 454.442 239.119C454.442 236.883 454.936 234.92 455.924 233.23C456.912 231.514 458.264 230.201 459.98 229.291C461.696 228.381 463.62 227.926 465.752 227.926C467.884 227.926 469.808 228.381 471.524 229.291C473.24 230.201 474.592 231.514 475.58 233.23C476.568 234.92 477.062 236.883 477.062 239.119C477.062 241.355 476.555 243.331 475.541 245.047C474.553 246.737 473.188 248.037 471.446 248.947C469.73 249.857 467.806 250.312 465.674 250.312ZM465.674 244.54C466.948 244.54 468.027 244.072 468.911 243.136C469.821 242.2 470.276 240.861 470.276 239.119C470.276 237.377 469.834 236.038 468.95 235.102C468.092 234.166 467.026 233.698 465.752 233.698C464.452 233.698 463.373 234.166 462.515 235.102C461.657 236.012 461.228 237.351 461.228 239.119C461.228 240.861 461.644 242.2 462.476 243.136C463.334 244.072 464.4 244.54 465.674 244.54ZM502.089 228.238V250H495.42V247.036C494.744 247.998 493.821 248.778 492.651 249.376C491.507 249.948 490.233 250.234 488.829 250.234C487.165 250.234 485.696 249.87 484.422 249.142C483.148 248.388 482.16 247.309 481.458 245.905C480.756 244.501 480.405 242.85 480.405 240.952V228.238H487.035V240.055C487.035 241.511 487.412 242.642 488.166 243.448C488.92 244.254 489.934 244.657 491.208 244.657C492.508 244.657 493.535 244.254 494.289 243.448C495.043 242.642 495.42 241.511 495.42 240.055V228.238H502.089ZM516.668 243.76L521.387 228.238H528.485L520.763 250H512.534L504.812 228.238H511.949L516.668 243.76ZM551.806 238.768C551.806 239.392 551.767 240.042 551.689 240.718H536.596C536.7 242.07 537.129 243.11 537.883 243.838C538.663 244.54 539.612 244.891 540.73 244.891C542.394 244.891 543.551 244.189 544.201 242.785H551.299C550.935 244.215 550.272 245.502 549.31 246.646C548.374 247.79 547.191 248.687 545.761 249.337C544.331 249.987 542.732 250.312 540.964 250.312C538.832 250.312 536.934 249.857 535.27 248.947C533.606 248.037 532.306 246.737 531.37 245.047C530.434 243.357 529.966 241.381 529.966 239.119C529.966 236.857 530.421 234.881 531.331 233.191C532.267 231.501 533.567 230.201 535.231 229.291C536.895 228.381 538.806 227.926 540.964 227.926C543.07 227.926 544.942 228.368 546.58 229.252C548.218 230.136 549.492 231.397 550.402 233.035C551.338 234.673 551.806 236.584 551.806 238.768ZM544.981 237.013C544.981 235.869 544.591 234.959 543.811 234.283C543.031 233.607 542.056 233.269 540.886 233.269C539.768 233.269 538.819 233.594 538.039 234.244C537.285 234.894 536.817 235.817 536.635 237.013H544.981ZM561.993 231.865C562.773 230.669 563.748 229.733 564.918 229.057C566.088 228.355 567.388 228.004 568.818 228.004V235.063H566.985C565.321 235.063 564.073 235.427 563.241 236.155C562.409 236.857 561.993 238.105 561.993 239.899V250H555.324V228.238H561.993V231.865ZM584.135 244.345V250H580.742C578.324 250 576.439 249.415 575.087 248.245C573.735 247.049 573.059 245.112 573.059 242.434V233.776H570.407V228.238H573.059V222.934H579.728V228.238H584.096V233.776H579.728V242.512C579.728 243.162 579.884 243.63 580.196 243.916C580.508 244.202 581.028 244.345 581.756 244.345H584.135Z" fill="#00A99D"/>
<path d="M666.41 233.776H662.822V250H656.153V233.776H653.735V228.238H656.153V227.614C656.153 224.936 656.92 222.908 658.454 221.53C659.988 220.126 662.237 219.424 665.201 219.424C665.695 219.424 666.059 219.437 666.293 219.463V225.118C665.019 225.04 664.122 225.222 663.602 225.664C663.082 226.106 662.822 226.899 662.822 228.043V228.238H666.41V233.776ZM690.058 238.768C690.058 239.392 690.019 240.042 689.941 240.718H674.848C674.952 242.07 675.381 243.11 676.135 243.838C676.915 244.54 677.864 244.891 678.982 244.891C680.646 244.891 681.803 244.189 682.453 242.785H689.551C689.187 244.215 688.524 245.502 687.562 246.646C686.626 247.79 685.443 248.687 684.013 249.337C682.583 249.987 680.984 250.312 679.216 250.312C677.084 250.312 675.186 249.857 673.522 248.947C671.858 248.037 670.558 246.737 669.622 245.047C668.686 243.357 668.218 241.381 668.218 239.119C668.218 236.857 668.673 234.881 669.583 233.191C670.519 231.501 671.819 230.201 673.483 229.291C675.147 228.381 677.058 227.926 679.216 227.926C681.322 227.926 683.194 228.368 684.832 229.252C686.47 230.136 687.744 231.397 688.654 233.035C689.59 234.673 690.058 236.584 690.058 238.768ZM683.233 237.013C683.233 235.869 682.843 234.959 682.063 234.283C681.283 233.607 680.308 233.269 679.138 233.269C678.02 233.269 677.071 233.594 676.291 234.244C675.537 234.894 675.069 235.817 674.887 237.013H683.233ZM700.245 231.865C701.025 230.669 702 229.733 703.17 229.057C704.34 228.355 705.64 228.004 707.07 228.004V235.063H705.237C703.573 235.063 702.325 235.427 701.493 236.155C700.661 236.857 700.245 238.105 700.245 239.899V250H693.576V228.238H700.245V231.865ZM738.026 228.004C740.73 228.004 742.875 228.823 744.461 230.461C746.073 232.099 746.879 234.374 746.879 237.286V250H740.249V238.183C740.249 236.779 739.872 235.7 739.118 234.946C738.39 234.166 737.376 233.776 736.076 233.776C734.776 233.776 733.749 234.166 732.995 234.946C732.267 235.7 731.903 236.779 731.903 238.183V250H725.273V238.183C725.273 236.779 724.896 235.7 724.142 234.946C723.414 234.166 722.4 233.776 721.1 233.776C719.8 233.776 718.773 234.166 718.019 234.946C717.291 235.7 716.927 236.779 716.927 238.183V250H710.258V228.238H716.927V230.968C717.603 230.058 718.487 229.343 719.579 228.823C720.671 228.277 721.906 228.004 723.284 228.004C724.922 228.004 726.378 228.355 727.652 229.057C728.952 229.759 729.966 230.76 730.694 232.06C731.448 230.864 732.475 229.889 733.775 229.135C735.075 228.381 736.492 228.004 738.026 228.004ZM772.057 238.768C772.057 239.392 772.018 240.042 771.94 240.718H756.847C756.951 242.07 757.38 243.11 758.134 243.838C758.914 244.54 759.863 244.891 760.981 244.891C762.645 244.891 763.802 244.189 764.452 242.785H771.55C771.186 244.215 770.523 245.502 769.561 246.646C768.625 247.79 767.442 248.687 766.012 249.337C764.582 249.987 762.983 250.312 761.215 250.312C759.083 250.312 757.185 249.857 755.521 248.947C753.857 248.037 752.557 246.737 751.621 245.047C750.685 243.357 750.217 241.381 750.217 239.119C750.217 236.857 750.672 234.881 751.582 233.191C752.518 231.501 753.818 230.201 755.482 229.291C757.146 228.381 759.057 227.926 761.215 227.926C763.321 227.926 765.193 228.368 766.831 229.252C768.469 230.136 769.743 231.397 770.653 233.035C771.589 234.673 772.057 236.584 772.057 238.768ZM765.232 237.013C765.232 235.869 764.842 234.959 764.062 234.283C763.282 233.607 762.307 233.269 761.137 233.269C760.019 233.269 759.07 233.594 758.29 234.244C757.536 234.894 757.068 235.817 756.886 237.013H765.232ZM765.7 222.661L756.301 226.6V221.998L765.7 217.474V222.661Z" fill="#EA1F59"/>
<defs>
<radialGradient id="paint0_radial_545_830" cx="0" cy="0" r="1" gradientUnits="userSpaceOnUse" gradientTransform="translate(169.194 182.427) rotate(-46.7935) scale(83.3026 123.838)">
<stop stop-color="#D9E021"/>
<stop offset="1" stop-color="#00A99D"/>
</radialGradient>
<clipPath id="clip0_545_830">
<rect width="545.55" height="147.93" fill="white" transform="translate(320 51)"/>
</clipPath>
</defs>
</svg>
